# xmcd
#
# Track frame offsets: 
#        150
#        23006
#        48701
#        69571
#        89248
#        106404
#        126396
#        148524
#        167941
#        194506
#        218241
#        238092
#        254417
#        270010
#        288713
#        311810
#
# Disc length: 4581 seconds
#
# Revision: 0
# Processed by: cddbd v1.5.2PL0 Copyright (c) Steve Scherf et al.
# Submitted via: ExactAudioCopy v0.99pb5
#
DISCID=0111e310
DTITLE=Hessin Al Jassmi - Al Jassmi 2010
DYEAR=2010
DGENRE=
TTITLE0=Bahr Elshok
TTITLE1=Wagd Kalby
TTITLE2=Raht Aleek
TTITLE3=Elmawaad
TTITLE4=Elhareem
TTITLE5=Seta Elsobh
TTITLE6=Eltag
TTITLE7=Anta Kafy
TTITLE8=Elfayda
TTITLE9=Sokkra
TTITLE10=Ayam Mn Hyaty
TTITLE11=Salm Al Habeb
TTITLE12=An Tzlmo
TTITLE13=Yooh
TTITLE14=Ya Khaleeh
TTITLE15=Taabt
EXTD=
EXTT0=
EXTT1=
EXTT2=
EXTT3=
EXTT4=
EXTT5=
EXTT6=
EXTT7=
EXTT8=
EXTT9=
EXTT10=
EXTT11=
EXTT12=
EXTT13=
EXTT14=
EXTT15=
PLAYORDER=
